<svg width="15" height="15" viewBox="0 0 15 15" fill="none" xmlns="http://www.w3.org/2000/svg">
<path d="M14.9868 5.79359C14.9551 5.69639 14.8711 5.62551 14.7698 5.61074L9.91277 4.90487L7.74065 0.503702C7.69554 0.411877 7.60211 0.353882 7.50008 0.353882C7.39805 0.353882 7.30434 0.411877 7.25951 0.503702L5.08711 4.90514L0.230041 5.61101C0.128819 5.62578 0.0450485 5.69639 0.0130976 5.79386C-0.0183163 5.89078 0.00772767 5.99764 0.0810268 6.06879L3.59589 9.49479L2.76598 14.3325C2.74879 14.4332 2.79014 14.535 2.87257 14.5951C2.95553 14.6558 3.06535 14.6636 3.15529 14.6155L7.50008 12.3317L11.8443 14.6155C11.8835 14.6362 11.9268 14.6464 11.9694 14.6464C12.025 14.6464 12.0803 14.6292 12.1273 14.5951C12.21 14.535 12.2514 14.4332 12.2339 14.3325L11.4043 9.49506L14.9191 6.06879C14.9922 5.99711 15.0185 5.89051 14.9868 5.79359Z" fill="#C9C9C9"/>
</svg>
