<svg width="28" height="36" viewBox="0 0 28 36" fill="none" xmlns="http://www.w3.org/2000/svg">
<path d="M13.9991 0C6.69175 0 0.746094 5.94566 0.746094 13.2538C0.746094 15.16 1.13626 16.98 1.90516 18.6637C5.21878 25.9147 11.5719 33.5702 13.4406 35.7436C13.5806 35.9061 13.7847 35.9996 13.9995 35.9996C14.2143 35.9996 14.4184 35.9061 14.5584 35.7436C16.4263 33.5706 22.7794 25.9154 26.0942 18.6637C26.8634 16.98 27.2532 15.16 27.2532 13.2538C27.2525 5.94566 21.3068 0 13.9991 0ZM13.9991 20.1378C10.2032 20.1378 7.1147 17.0493 7.1147 13.2534C7.1147 9.45713 10.2032 6.36861 13.9991 6.36861C17.795 6.36861 20.8835 9.45713 20.8835 13.2534C20.8839 17.0493 17.7954 20.1378 13.9991 20.1378Z" fill="#8D3E84"/>
</svg>
