<svg width="34" height="46" viewBox="0 0 34 46" fill="none" xmlns="http://www.w3.org/2000/svg">
<path d="M16.9989 0C7.66168 0 0.0644531 7.59723 0.0644531 16.9354C0.0644531 19.3711 0.562994 21.6967 1.54548 23.8481C5.77956 33.1132 13.8975 42.8953 16.2852 45.6723C16.4641 45.88 16.7249 45.9995 16.9993 45.9995C17.2738 45.9995 17.5346 45.88 17.7135 45.6723C20.1003 42.8958 28.2182 33.1142 32.4537 23.8481C33.4366 21.6967 33.9347 19.3711 33.9347 16.9354C33.9337 7.59723 26.3365 0 16.9989 0ZM16.9989 25.7316C12.1486 25.7316 8.20212 21.7852 8.20212 16.9349C8.20212 12.0841 12.1486 8.13767 16.9989 8.13767C21.8492 8.13767 25.7956 12.0841 25.7956 16.9349C25.7961 21.7852 21.8496 25.7316 16.9989 25.7316Z" fill="#8D3E84"/>
</svg>
