<svg width="40" height="48" viewBox="0 0 40 48" fill="none" xmlns="http://www.w3.org/2000/svg">
<path d="M10.1375 30.8817C10.1375 30.0846 9.58436 29.6092 8.60842 29.6092C8.20989 29.6092 7.94 29.6485 7.79883 29.6861V32.2437C7.96598 32.2814 8.17147 32.2939 8.4547 32.2939C9.49496 32.2939 10.1375 31.7684 10.1375 30.8817Z" fill="#6E2C78"/>
<path d="M16.1795 29.636C15.7425 29.636 15.46 29.6737 15.293 29.7128V35.3772C15.4601 35.4164 15.73 35.4164 15.974 35.4164C17.747 35.4289 18.9034 34.453 18.9034 32.385C18.9159 30.5867 17.8622 29.636 16.1795 29.636Z" fill="#6E2C78"/>
<path d="M27.4041 0H8.1253C5.30886 0 3.01658 2.29387 3.01658 5.10872V23.9999H2.51761C1.38087 23.9999 0.458984 24.9209 0.458984 26.0586V38.5434C0.458984 39.681 1.38077 40.6019 2.51761 40.6019H3.01658V42.8912C3.01658 45.7091 5.30886 47.9999 8.1253 47.9999H34.4303C37.245 47.9999 39.5376 45.709 39.5376 42.8912V12.091L27.4041 0ZM5.85961 28.3117C6.46292 28.2097 7.31094 28.1329 8.50571 28.1329C9.71313 28.1329 10.5737 28.3633 11.1519 28.8263C11.7042 29.2625 12.077 29.9826 12.077 30.83C12.077 31.6773 11.7945 32.3976 11.2806 32.8855C10.6122 33.5147 9.62372 33.7971 8.46738 33.7971C8.21003 33.7971 7.97935 33.7844 7.79896 33.7594V36.8552H5.85961V28.3117ZM34.4303 44.8712H8.1253C7.03477 44.8712 6.14673 43.9832 6.14673 42.8912V40.6019H30.6684C31.8053 40.6019 32.7271 39.681 32.7271 38.5434V26.0586C32.7271 24.9209 31.8053 23.9999 30.6684 23.9999H6.14673V5.10872C6.14673 4.01978 7.03487 3.13174 8.1253 3.13174L26.2336 3.11282V9.80628C26.2336 11.7614 27.8199 13.3492 29.7765 13.3492L36.3334 13.3304L36.4072 42.8911C36.4072 43.9832 35.5208 44.8712 34.4303 44.8712ZM13.3275 36.816V28.3117C14.0468 28.1972 14.9843 28.1329 15.9737 28.1329C17.618 28.1329 18.6842 28.4279 19.5197 29.0569C20.4188 29.7254 20.9836 30.7908 20.9836 32.3205C20.9836 33.9774 20.3803 35.1213 19.5447 35.8273C18.6331 36.5851 17.2453 36.9445 15.55 36.9445C14.5347 36.9445 13.8154 36.8802 13.3275 36.816ZM27.3477 31.7809V33.3734H24.2386V36.8552H22.2733V28.1972H27.5657V29.8022H24.2386V31.7809H27.3477Z" fill="#6E2C78"/>
</svg>
