<svg width="14" height="14" viewBox="0 0 14 14" fill="none" xmlns="http://www.w3.org/2000/svg">
<path d="M7.00031 7.41363C8.73384 7.41363 10.1393 5.76869 10.1393 3.73958C10.1393 0.925745 8.7339 0.0655518 7.00031 0.0655518C5.26665 0.0655518 3.86133 0.925745 3.86133 3.73958C3.86136 5.76869 5.26669 7.41363 7.00031 7.41363Z" fill="#6E2C78"/>
<path d="M13.9316 12.8214L12.3479 9.25392C12.2755 9.09067 12.1482 8.95528 11.9898 8.87282L9.53209 7.59341C9.47789 7.56525 9.41227 7.57073 9.36354 7.60761C8.66841 8.13337 7.85109 8.41128 7.00004 8.41128C6.14884 8.41128 5.3316 8.13337 4.63646 7.60761C4.5876 7.57073 4.52198 7.56525 4.46778 7.59341L2.01021 8.87282C1.85176 8.95528 1.72464 9.0906 1.65214 9.25392L0.0684866 12.8214C-0.0406968 13.0673 -0.0183195 13.3487 0.128365 13.5743C0.27498 13.7999 0.523115 13.9345 0.792155 13.9345H13.2078C13.4769 13.9345 13.7251 13.7998 13.8717 13.5743C14.0183 13.3487 14.0407 13.0672 13.9316 12.8214Z" fill="#6E2C78"/>
</svg>
